<?xml version="1.0" encoding="UTF-8" standalone="no"?>
<svg
   xmlns:dc="http://purl.org/dc/elements/1.1/"
   xmlns:cc="http://creativecommons.org/ns#"
   xmlns:rdf="http://www.w3.org/1999/02/22-rdf-syntax-ns#"
   xmlns:svg="http://www.w3.org/2000/svg"
   xmlns="http://www.w3.org/2000/svg"
   xmlns:sodipodi="http://sodipodi.sourceforge.net/DTD/sodipodi-0.dtd"
   xmlns:inkscape="http://www.inkscape.org/namespaces/inkscape"
   version="1.0"
   width="50"
   height="50"
   id="svg1361"
   sodipodi:docname="double-sharp.svg"
   inkscape:version="1.0.2-2 (e86c870879, 2021-01-15)">
  <metadata
     id="metadata9">
    <rdf:RDF>
      <cc:Work
         rdf:about="">
        <dc:format>image/svg+xml</dc:format>
        <dc:type
           rdf:resource="http://purl.org/dc/dcmitype/StillImage" />
        <dc:title></dc:title>
      </cc:Work>
    </rdf:RDF>
  </metadata>
  <sodipodi:namedview
     pagecolor="#ffffff"
     bordercolor="#666666"
     borderopacity="1"
     objecttolerance="10"
     gridtolerance="10"
     guidetolerance="10"
     inkscape:pageopacity="0"
     inkscape:pageshadow="2"
     inkscape:window-width="1920"
     inkscape:window-height="1001"
     id="namedview7"
     showgrid="false"
     inkscape:zoom="14.821429"
     inkscape:cx="3"
     inkscape:cy="18.680723"
     inkscape:window-x="-9"
     inkscape:window-y="-9"
     inkscape:window-maximized="1"
     inkscape:current-layer="svg1361" />
  <defs
     id="defs1363" />
  <g
     id="layer1"
     transform="matrix(2.99999,0,0,3.00002,-1.199996e-4,13.49987)"
     style="fill:#000000">
    <g
       transform="translate(-119.009,-441.814)"
       style="fill:#000000"
       id="g2131">
      <path
         d="m 125.009,448.30721 c -0.73457,-0.11529 -1.48131,-0.11512 -2.2232,-0.11427 -0.0157,-0.54283 0.0709,-1.12004 -0.1443,-1.62951 -0.14329,-0.33917 -0.41618,-0.60678 -0.65881,-0.88188 -0.38717,0.34625 -0.70518,0.8032 -0.73565,1.33483 -0.03,0.39129 -0.008,0.78447 -0.0148,1.17656 -0.7418,0.0112 -1.49138,-0.0247 -2.2232,0.12106 0.14112,-0.7277 0.10905,-1.47229 0.12183,-2.2092 0.56487,-0.0153 1.1694,0.0662 1.69401,-0.17954 0.30957,-0.14503 0.57169,-0.37231 0.83426,-0.5885 -0.3418,-0.38711 -0.78564,-0.72815 -1.32245,-0.76025 -0.40092,-0.0317 -0.80399,-0.009 -1.20582,-0.0155 -0.0252,-0.73148 0.0602,-1.47242 -0.0916,-2.19467 0.72346,0.13067 1.46144,0.0971 2.19299,0.10654 0.0109,0.52099 -0.0474,1.06097 0.0997,1.56266 0.11223,0.38288 0.41787,0.67743 0.67319,0.97971 0.36043,-0.3141 0.68547,-0.70815 0.74501,-1.20109 0.0539,-0.44619 0.0111,-0.89435 0.0357,-1.34128 0.73683,-0.0194 1.49635,0.0743 2.20955,-0.15884 -0.10644,0.74311 -0.11646,1.49752 -0.10818,2.24697 -0.5259,0.0149 -1.07763,-0.0435 -1.57762,0.1336 -0.3798,0.13453 -0.67841,0.42884 -0.98086,0.68868 0.32792,0.33542 0.72291,0.64477 1.21161,0.69043 0.44804,0.0419 0.89799,0.0229 1.34687,0.0311 0.0111,0.73478 -0.0252,1.4777 0.12183,2.20241 z"
         id="path2133"
         style="fill:#000000" />
    </g>
  </g>
</svg>
