<?xml version="1.0" encoding="UTF-8" standalone="no"?>
<svg
   xmlns:dc="http://purl.org/dc/elements/1.1/"
   xmlns:cc="http://creativecommons.org/ns#"
   xmlns:rdf="http://www.w3.org/1999/02/22-rdf-syntax-ns#"
   xmlns:svg="http://www.w3.org/2000/svg"
   xmlns="http://www.w3.org/2000/svg"
   xmlns:sodipodi="http://sodipodi.sourceforge.net/DTD/sodipodi-0.dtd"
   xmlns:inkscape="http://www.inkscape.org/namespaces/inkscape"
   version="1.1"
   id="svg2"
   xml:space="preserve"
   width="3377.3333"
   height="2251.5601"
   viewBox="0 0 25000 16666"
   sodipodi:docname="grand-staff-short.svg"
   inkscape:version="1.0.2-2 (e86c870879, 2021-01-15)"><metadata
     id="metadata8"><rdf:RDF><cc:Work
         rdf:about=""><dc:format>image/svg+xml</dc:format><dc:type
           rdf:resource="http://purl.org/dc/dcmitype/StillImage" /></cc:Work></rdf:RDF></metadata><defs
     id="defs6" /><sodipodi:namedview
     pagecolor="#ffffff"
     bordercolor="#666666"
     borderopacity="1"
     objecttolerance="10"
     gridtolerance="10"
     guidetolerance="10"
     inkscape:pageopacity="0"
     inkscape:pageshadow="2"
     inkscape:window-width="1920"
     inkscape:window-height="1001"
     id="namedview4"
     inkscape:document-rotation="0"
     showgrid="false"
     inkscape:zoom="3.6101414"
     inkscape:cx="184.9748"
     inkscape:cy="149.5819"
     inkscape:window-x="-9"
     inkscape:window-y="-9"
     inkscape:window-maximized="1"
     inkscape:current-layer="g12" /><g
     id="g10"
     inkscape:groupmode="layer"
     inkscape:label="ink_ext_XXXXXX"
     transform="matrix(1.3333333,0,0,-1.3333333,0,2251.56)"><g
       id="g12"
       transform="scale(0.1)"><path
         d="M 19431.012,0 H 0 V 16886.7 H 19431.012 V 0"
         style="fill:#ffffff;fill-opacity:1;fill-rule:nonzero;stroke:none;stroke-width:0.87585"
         id="path14" /><path
         d="m 3997.65,2625.5 0.23,11626.8 h 119.18 l -0.23,-11626.8 h -119.18"
         style="fill:#000000;fill-opacity:1;fill-rule:nonzero;stroke:none"
         id="path16" /><path
         d="M 16766.74,14175.9 H 3997.79 v 76.4 c 4256.3169,0 8512.633,0 12768.95,0 v -76.4"
         style="fill:#000000;fill-opacity:1;fill-rule:nonzero;stroke:none;stroke-width:0.82611"
         id="path18"
         sodipodi:nodetypes="ccccc" /><path
         d="M 16766.74,13383.1 H 11418.063 10620.448 3997.79 v 76.5 h 10085.987 2682.963 v -76.5"
         style="fill:#000000;fill-opacity:1;fill-rule:nonzero;stroke:none;stroke-width:0.826111"
         id="path20"
         sodipodi:nodetypes="cccccccc" /><path
         d="M 16766.74,12590.4 H 11281.629 9088.1882 3997.79 v 76.4 h 12768.95 v -76.4"
         style="fill:#000000;fill-opacity:1;fill-rule:nonzero;stroke:none;stroke-width:0.826111"
         id="path22"
         sodipodi:nodetypes="ccccccc" /><path
         d="M 16766.74,11797.6 H 9560.4596 3997.79 v 76.5 h 12768.95 v -76.5"
         style="fill:#000000;fill-opacity:1;fill-rule:nonzero;stroke:none;stroke-width:0.826111"
         id="path24"
         sodipodi:nodetypes="cccccc" /><path
         d="M 16766.74,11004.9 H 3997.79 v 76.4 h 12768.95 v -76.4"
         style="fill:#000000;fill-opacity:1;fill-rule:nonzero;stroke:none;stroke-width:0.826111"
         id="path26" /><path
         d="M 16766.74,5796.5 H 3997.79 v 76.4 h 12768.95 v -76.4"
         style="fill:#000000;fill-opacity:1;fill-rule:nonzero;stroke:none;stroke-width:0.82615"
         id="path28" /><path
         d="M 16766.74,5003.7 H 3997.79 v 76.5 h 12768.95 v -76.5"
         style="fill:#000000;fill-opacity:1;fill-rule:nonzero;stroke:none;stroke-width:0.826151"
         id="path30" /><path
         d="M 16766.74,4211 H 3997.79 v 76.4 H 16766.74 V 4211"
         style="fill:#000000;fill-opacity:1;fill-rule:nonzero;stroke:none;stroke-width:0.826151"
         id="path32" /><path
         d="M 16766.74,3418.2 H 3997.79 v 76.5 h 12768.95 v -76.5"
         style="fill:#000000;fill-opacity:1;fill-rule:nonzero;stroke:none;stroke-width:0.82615"
         id="path34" /><path
         d="M 16766.74,2625.5 H 3997.79 v 76.4 h 12768.95 v -76.4"
         style="fill:#000000;fill-opacity:1;fill-rule:nonzero;stroke:none;stroke-width:0.82615"
         id="path36" /><path
         d="m 5914.68,12330.3 159.76,-1126.2 c 227.22,77.6 349.52,265.8 366.89,564.6 -5.87,99.5 -30.51,190.9 -73.94,274.4 -43.43,83.4 -104.02,150.6 -181.78,201.7 -77.76,51 -168.07,79.5 -270.93,85.5 z m -210.18,1519.8 c 49.68,26.5 106.48,73.2 170.41,140.1 63.94,66.9 126.33,145.4 187.18,235.5 60.86,90.1 110.91,182.5 150.18,277.2 39.25,94.7 61.3,183.7 66.16,267.1 2.18,37.5 4.1,66.8 0.42,106.8 -5.4,58.5 -20.98,91.8 -46.96,120.7 -25.97,28.9 -60.74,44.7 -104.3,47.2 -87.13,5.1 -168.24,-43.7 -243.36,-146.3 -59.47,-90.1 -109.5,-196.7 -150.12,-319.5 -40.62,-122.9 -66.23,-246.9 -76.82,-372 -0.65,-144 15.09,-263 47.21,-356.8 z m 104.57,-1527.8 c -89.69,-19.7 -173.68,-69.9 -251.98,-150.7 -78.3,-80.8 -120.37,-171.7 -126.25,-272.7 -3.75,-64.6 13.33,-137.1 51.28,-217.4 37.93,-80.3 97.24,-140.6 177.91,-180.7 18.6,-9.3 42.81,-25.9 37.74,-46.2 -2.36,-9.4 -17.31,-19.5 -34.67,-15.5 -130.73,41.4 -234.87,117.5 -312.47,228.4 -77.59,110.9 -113.98,236 -109.2,375.4 13.6,148.2 66.85,283.8 159.76,406.6 92.89,122.9 209.23,207.7 349.05,254.4 l -68.96,518.4 c -233.78,-172 -426.34,-354.6 -577.72,-547.7 -151.37,-193.1 -236.93,-407.4 -256.71,-642.9 -2.82,-105.6 13.17,-209.2 47.98,-310.7 34.79,-101.4 90.14,-195.1 166,-281 154.38,-173.5 441.5,-296.1 619.22,-294.4 158.36,1.5 184.26,10.6 287.21,30.6 z M 5607.85,13771 c -51.62,238.4 -73.98,479.1 -67.07,721.9 11.32,156.7 35.82,301.8 73.48,435.4 37.66,133.5 86.43,249.1 146.37,346.7 59.93,97.7 126.17,170.4 198.71,218.3 65.64,43.8 111.15,65 136.54,63.5 18.19,-1 34.09,-8.6 47.66,-22.7 13.57,-14.1 31.09,-36.7 52.52,-67.9 158.02,-253.5 227.02,-552.6 206.98,-897.1 -9.44,-162.3 -40.01,-321.4 -91.73,-477.1 -51.73,-155.7 -123.22,-301.6 -214.51,-437.6 -91.29,-135.9 -197.45,-253.6 -318.46,-352.9 l 84.84,-576.7 c 64.6,5.1 109.06,6.9 133.37,5.5 108.83,-6.3 207.22,-35 295.17,-86.1 87.94,-51.1 161.52,-118 220.74,-200.7 59.21,-82.7 103.16,-175.5 131.82,-278.6 28.65,-103 39.79,-209.2 33.43,-318.6 -9.95,-171.1 -63.65,-324.3 -161.09,-459.3 -97.44,-135.1 -237.92,-230.5 -421.43,-286.3 6.97,-71.4 21.44,-174.3 43.39,-308.8 21.95,-134.5 37.59,-241.1 46.94,-319.8 9.32,-78.7 11.86,-154.7 7.6,-228.1 -6.62,-113.8 -40.28,-213.6 -100.98,-299.6 -60.7,-85.94 -140.14,-150.86 -238.28,-194.75 -98.17,-43.86 -203.6,-62.53 -316.28,-55.98 -158.53,9.22 -294.75,61.74 -408.61,157.56 -113.87,95.83 -173.88,221.07 -166.63,372.87 3.23,67.6 28.51,130.2 60.51,189.3 31.99,59.1 74.1,106.2 126.35,141.4 52.24,35.2 106.02,53.5 179.85,52.7 58.08,-0.6 110.12,-21.9 158.03,-55.8 47.93,-33.8 85.39,-78.3 112.39,-133.4 26.99,-55.1 38.62,-115 34.86,-179.7 -4.92,-84.6 -37.98,-154.9 -99.17,-211 -61.19,-56.07 -135.98,-81.55 -224.36,-76.41 l -33.98,1.98 c 51.73,-91.11 141.88,-140.4 270.45,-147.87 65.11,-3.79 132.1,5.88 201,28.93 68.89,23.11 128.53,56.13 178.92,99.09 50.39,42.96 84.29,90.48 101.72,142.58 27.08,57.7 43.65,138.5 49.68,242.4 3.99,68.5 1.43,137.8 -7.65,207.9 -9.09,70.1 -24.21,161.9 -45.33,275.4 -21.15,113.5 -36.1,200.7 -44.88,261.7 -87.42,-17.7 -178.3,-23.7 -272.67,-18.3 -157.29,9.2 -304.15,50.1 -440.58,122.9 -136.43,72.8 -254.28,169.9 -353.53,291.5 -99.26,121.6 -173.99,257.5 -224.23,407.8 -50.24,150.3 -73.77,271.4 -64.02,463.3 7.51,147.6 50.73,286.4 109.9,417.9 59.17,131.4 133.48,254.1 222.94,368 89.44,113.9 181,216.5 274.69,307.8 93.67,91.2 218.54,206.8 374.62,346.8"
         style="fill:#000000;fill-opacity:1;fill-rule:nonzero;stroke:none"
         id="path38" /><path
         d="m 4482.48,3202.6 c 224.78,152.1 391.3,267.3 499.57,345.6 108.25,78.3 220.51,175.9 336.75,292.7 116.25,116.9 214.32,248.7 294.22,395.3 62.25,106.9 115.41,231.3 159.48,372.9 44.08,141.7 67.77,277.1 71.08,406.1 0,120.7 -15.84,235.5 -47.52,344.4 -31.68,108.8 -85.68,198.8 -161.98,269.9 -76.31,71.2 -175.9,106.7 -298.76,106.7 -119.57,0 -231.41,-23.7 -335.53,-71.1 -104.15,-47.4 -177.96,-128 -220.49,-233.2 -5.17,-11.6 -11.66,-23.5 -11.67,-44.1 -0.01,-20.7 14.17,-39.2 34.98,-52.1 21.14,-13.1 39.27,-16.2 55.79,-16.2 8.82,0 32.22,4.5 70.22,13.6 37.98,9.1 69.65,13.7 94.98,13.7 74.9,0 142.21,-26.4 201.96,-79 59.74,-52.7 89.63,-116.5 89.63,-191.4 0,-54.1 -14.88,-104.7 -44.6,-151.8 -29.76,-47.1 -70.91,-84.5 -123.5,-112 -52.58,-27.6 -110.55,-41.4 -173.87,-41.4 -113.45,0 -209.53,34.9 -288.27,104.6 -78.76,69.8 -118.12,160.3 -118.12,271.7 0,143.3 43.53,267.2 130.59,371.7 87.06,104.4 198.22,183.1 333.5,236 135.28,53 271.79,79.4 409.54,79.4 153.2,0 297.27,-38.8 432.27,-116.6 134.99,-77.7 242.31,-182.9 321.94,-315.4 79.61,-132.6 119.43,-275.3 119.43,-428 0,-272.3 -90.64,-525.3 -271.94,-759.1 -181.29,-233.7 -405.55,-436.9 -672.8,-609.4 -179.09,-118.5 -467.83,-277.9 -866.22,-478 l -20.66,74.5"
         style="fill:#000000;fill-opacity:1;fill-rule:nonzero;stroke:none"
         id="path40" /><path
         d="m 6820.51,5411.8 c 0,-101.7 -82.41,-184.1 -184.06,-184.1 -101.66,0 -184.08,82.4 -184.08,184.1 0,101.6 82.42,184 184.08,184 101.65,0 184.06,-82.4 184.06,-184"
         style="fill:#000000;fill-opacity:1;fill-rule:nonzero;stroke:none"
         id="path42" /><path
         d="m 6820.51,4669.7 c 0,-101.7 -82.41,-184.1 -184.06,-184.1 -101.66,0 -184.08,82.4 -184.08,184.1 0,101.6 82.42,184 184.08,184 101.65,0 184.06,-82.4 184.06,-184"
         style="fill:#000000;fill-opacity:1;fill-rule:nonzero;stroke:none"
         id="path44" /><path
         d="m 3021.77,4038.9 c 0,892.9 641.92,1798.8 641.92,2730.8 0,593.11 -233.43,1160.15 -919.11,1668.5 685.68,508.38 919.11,1075.41 919.11,1668.5 0,932 -641.92,1838 -641.92,2730.9 0,449.7 175.09,886.3 714.87,1277.4 7.28,4.9 11.41,13 10.95,17.9 -1.68,17.7 -40.15,26.6 -69.32,27.7 -29.35,1.2 -40.11,-1.6 -58.34,-13 -700.27,-501.9 -933.69,-1081.9 -933.69,-1668.5 0,-945 685.66,-1857.5 685.66,-2763.44 0,-449.73 -175.04,-873.37 -714.86,-1264.41 -9.4,-7.48 -8.2,-19.95 0,-26.07 539.82,-391.07 714.86,-814.69 714.86,-1264.42 0,-905.96 -685.66,-1818.36 -685.66,-2763.46 0,-586.6 233.42,-1166.6 933.69,-1668.5 24.26,-14.5 43.76,-13.5 58.34,-13 31.49,1 69.35,10.2 69.32,27.7 -0.01,4.9 -3.67,13 -10.95,17.9 -539.78,391.1 -714.87,827.8 -714.87,1277.5"
         style="fill:#000000;fill-opacity:1;fill-rule:evenodd;stroke:none"
         id="path46" /></g></g></svg>
