<?xml version="1.0" encoding="UTF-8" standalone="no"?>
<svg
   xmlns:dc="http://purl.org/dc/elements/1.1/"
   xmlns:cc="http://creativecommons.org/ns#"
   xmlns:rdf="http://www.w3.org/1999/02/22-rdf-syntax-ns#"
   xmlns:svg="http://www.w3.org/2000/svg"
   xmlns="http://www.w3.org/2000/svg"
   viewBox="0 0 533.33331 533.33331"
   height="533.33331"
   width="533.33331"
   xml:space="preserve"
   id="svg2"
   version="1.1"><metada1ta
     id="metadata8"><rdf:RDF><cc:Work
         rdf:about=""><dc:format>image/svg+xml</dc:format><dc:type
           rdf:resource="http://purl.org/dc/dcmitype/StillImage" /></cc:Work></rdf:RDF></metadata><defs
     id="defs6" /><g
     transform="matrix(1.3333333,0,0,-1.3333333,0,533.33333)"
     id="g10"><g
       transform="scale(0.1)"
       id="g12"><path
         id="path14"
         style="fill:#ffffff;fill-opacity:1;fill-rule:nonzero;stroke:none"
         d="M 4000,0 H 0 V 4000 H 4000 V 0" /><path
         id="path16"
         style="fill:#000000;fill-opacity:1;fill-rule:nonzero;stroke:none"
         d="M 3845.3,2019.07 H 126.672 V 1621.26 H 3873.33 v 6.87 90.86 6.87 90.88 6.85 90.88 6.87 90.87 6.86 z M 133.535,2012.21 H 3812.88 v -90.87 H 133.535 Z m 0,-97.74 H 3812.88 v -90.88 H 133.535 Z m 0,-97.73 H 3812.88 v -90.88 H 133.535 Z m 0,-97.75 H 3812.88 v -90.86 H 133.535 Z M 3845.3,1628.13 h -15.29 v 90.86 h 15.29 z m 0,97.73 h -15.29 v 90.88 h 15.29 z m 0,97.73 h -15.29 v 90.88 h 15.29 z m 0,97.75 h -15.29 v 90.87 h 15.29 v -90.87" /><path
         id="path18"
         style="fill:#000000;fill-opacity:1;fill-rule:nonzero;stroke:none"
         d="m 303.359,941.445 c 35.332,22.149 78.047,35.606 120.235,29.805 38.23,-4.492 73.039,-25.059 99.922,-51.953 29.804,-29.27 52.746,-66.445 60.91,-107.844 10.293,-49.832 -0.52,-102.039 -20.821,-147.918 -31.64,-70.137 -82.003,-129.98 -139.218,-180.605 -31.379,-27.16 -64.867,-52.207 -101.516,-71.719 -18.984,-10.02 -38.762,-18.984 -59.851,-23.469 -3.957,-1.316 -8.176,-1.054 -12.129,0 -0.793,1.574 -2.375,4.485 -3.43,5.805 0,10.808 12.394,13.172 20.039,17.129 66.973,34.551 127.344,83.582 171.121,145.015 37.973,52.739 61.699,116.282 63.547,181.672 2.375,48.25 -6.594,98.875 -34.539,139.219 -19.516,29.258 -50.625,52.207 -86.223,55.898 -31.902,3.692 -64.07,-10.285 -86.218,-32.96 -7.915,-11.075 -6.067,-29.266 6.328,-36.122 5.535,-3.957 12.656,-3.691 18.98,-4.218 23.203,-2.11 45.09,-15.293 58.012,-34.805 14.5,-21.094 16.875,-49.57 7.105,-73.301 -9.746,-22.676 -30.84,-40.605 -55.105,-46.14 -22.403,-4.485 -46.922,-0.52 -65.117,13.972 -13.45,11.864 -23.203,27.688 -29.532,44.571 -15.031,40.332 -11.601,87.531 10.547,124.445 14.239,22.144 35.078,39.285 56.953,53.523 v 0" /><path
         id="path20"
         style="fill:#000000;fill-opacity:1;fill-rule:nonzero;stroke:none"
         d="m 702.004,871.27 c 0,-21.055 -17.063,-38.106 -38.098,-38.106 -21.047,0 -38.105,17.051 -38.105,38.106 0,21.035 17.058,38.085 38.105,38.085 21.035,0 38.098,-17.05 38.098,-38.085" /><path
         id="path22"
         style="fill:#000000;fill-opacity:1;fill-rule:nonzero;stroke:none"
         d="m 702.004,699.883 c 0,-21.035 -17.063,-38.106 -38.098,-38.106 -21.047,0 -38.105,17.071 -38.105,38.106 0,21.047 17.058,38.105 38.105,38.105 21.035,0 38.098,-17.058 38.098,-38.105" /><path
         id="path24"
         style="fill:#000000;fill-opacity:1;fill-rule:nonzero;stroke:none"
         d="m 2309.77,334.297 c 2.91,4.961 5.7,10.012 8.43,15.066 5.67,10.45 11.1,21.035 16.14,31.797 9.92,21.113 18.96,42.68 26.4,64.809 11.94,35.562 20.14,72.508 22.29,110.015 1.09,18.926 -0.12,37.856 -3.46,56.504 -3.2,17.778 -8.87,34.985 -15.74,51.633 -28.38,68.859 -85.37,119.27 -133.11,174.504 -11.52,13.355 -22.75,26.91 -31.91,42.051 -9.12,15.078 -16.27,31.344 -21.33,48.242 -5.31,17.762 -8.48,36.094 -10.88,54.449 -1.17,9.074 -2.32,18.153 -3.44,27.203 -0.13,1.1 -0.45,3.6 -0.62,4.91 0,0.49 0,0.82 0,0.82 h -0.1 -22.81 c 0,-213.234 0.1,-426.464 0,-639.691 -49.49,29.27 -111.88,18.911 -161.17,-5.796 -44.67,-22.407 -87.7,-62.375 -88.64,-115.645 -0.44,-25.395 4.11,-51.77 24.65,-68.789 20.47,-16.953 49.03,-18.137 74.42,-17.426 54,1.516 109.9,28.449 145.25,69.317 20.61,23.808 28.4,49.425 28.4,80.531 0,33.23 0,66.465 0,99.683 0,35.547 0,204.067 0,353.164 11.21,-1.597 22.4,-3.335 33.22,-6.707 10.29,-3.211 20.28,-7.468 29.9,-12.375 16.45,-8.355 31.88,-18.687 45.9,-30.671 51.8,-44.192 81.99,-110.418 83.24,-178.372 0.71,-37.007 -6.73,-73.55 -18.22,-108.589 -5.9,-17.93 -12.79,-35.508 -20.23,-52.832 -7.09,-16.457 -14.81,-32.629 -21.84,-49.106 h 14.51 c 0.24,0.41 0.45,0.82 0.75,1.301" /><path
         id="path26"
         style="fill:#000000;fill-opacity:1;fill-rule:nonzero;stroke:none"
         d="m 3014.29,896.094 c 0,33 10.99,66.008 8,99.004 -3,82.002 -51,152.002 -107.01,208.992 -28.99,33.01 -72,60 -82,107.02 -5.44,13.59 -6.99,57.63 -6.99,57.63 h -22.91 c 0,-213.23 0.1,-426.467 0,-639.685 -49.5,29.265 -111.88,18.906 -161.17,-5.801 -44.68,-22.402 -87.7,-62.375 -88.65,-115.649 -0.45,-25.386 4.11,-51.765 24.65,-68.789 20.47,-16.953 49.04,-18.132 74.43,-17.421 53.99,1.515 109.89,28.449 145.25,69.32 20.61,23.805 28.4,49.422 28.4,80.523 0,33.235 0,66.465 0,99.692 0,26.738 0,128.777 0,241.17 60,-40.995 131,-74.002 170,-137.991 30.34,-60.691 17.32,-126.441 -0.36,-188.671 h 13.69 c 29.22,65.414 29.46,143.457 4.67,210.656 z m -14.01,29.004 c -43.99,72.004 -122,118.002 -155.99,197.002 -12,24.01 -14.01,51 -18,78 68.99,-38 130,-91.01 161.99,-163.99 15,-35 16.01,-74.008 12,-111.012" /><path
         id="path28"
         style="fill:#000000;fill-opacity:1;fill-rule:nonzero;stroke:none"
         d="m 1742.93,1307.06 v 2.04 l -21.21,-2.04 h -1.08 c 0,0 0,-0.08 0,-0.11 l -559.35,-53.81 v -73.64 l 0.15,0.02 c 0.01,-41.23 0.09,-412.196 0,-614.082 -49.5,29.269 -111.87,18.91 -161.17,-5.797 -44.672,-22.407 -87.692,-62.375 -88.637,-115.649 -0.449,-25.387 4.097,-51.765 24.644,-68.789 20.469,-16.949 49.036,-18.133 74.423,-17.422 54,1.516 109.9,28.449 145.25,69.321 20.6,23.804 28.4,49.421 28.4,80.527 0,33.23 0,99.684 0,99.684 v 574.407 l 536.3,51.59 c 0.03,-131.49 0.06,-385.517 -0.01,-543.915 -49.49,29.265 -111.87,18.906 -161.17,-5.801 -44.67,-22.403 -87.69,-62.371 -88.63,-115.645 -0.45,-25.39 4.1,-51.765 24.65,-68.789 20.47,-16.953 49.02,-18.137 74.41,-17.422 54.01,1.516 109.9,28.45 145.26,69.317 20.6,23.808 28.39,49.425 28.39,80.527 0,33.231 0,99.688 0,99.688 v 575.79 h -0.62" /><path
         id="path30"
         style="fill:#000000;fill-opacity:1;fill-rule:nonzero;stroke:none"
         d="m 3406.23,1121.74 h 27.14 c 0,-123.095 0,-251.279 0,-374.443 43.24,41.316 81.36,94.207 89.54,155.879 15.64,-45.996 45.61,-98.867 96.93,-103.899 37.43,-3.711 49.4,44.825 55.8,74.446 11.88,55.183 11.01,114.675 -6.2,168.837 -12.1,38.12 -55.09,76.82 -91.95,59.07 -36.04,-17.39 17.65,-39.74 20.44,-72.4 4.2,-49.394 -46.07,-78.378 -83.39,-56.156 -39.33,23.379 -36.13,82.196 -6.25,112.316 21.52,21.63 60.73,36.64 89.85,36.41 29.75,-0.24 47.14,-2.42 73.72,-12.12 59.67,-21.7 94.12,-85.11 100.52,-147.93 7.29,-71.496 -29.37,-150.062 -94.97,-177.324 -42.18,-17.563 -91.49,-2.285 -124.03,28.836 -5.29,-31.258 -18.83,-56.035 -35.52,-77.61 16.69,-21.55 30.23,-46.328 35.52,-77.539 32.54,31.086 81.85,46.352 124.03,28.84 65.6,-27.246 102.26,-105.832 94.97,-177.375 -6.4,-62.742 -40.85,-126.238 -100.52,-147.93 -26.58,-9.636 -43.97,-11.812 -73.72,-12.058 -29.12,-0.235 -68.33,14.726 -89.85,36.406 -29.88,30.109 -33.08,88.875 6.25,112.324 37.32,22.176 87.59,-6.789 83.39,-56.218 -2.79,-32.622 -56.48,-55 -20.44,-72.336 36.86,-17.754 79.85,20.91 91.95,59.074 17.21,54.082 18.08,113.57 6.2,168.765 -6.4,29.692 -18.37,78.137 -55.8,74.512 -51.32,-5.015 -81.29,-57.906 -96.93,-103.894 -8.18,61.621 -46.3,114.504 -89.54,155.808 0,-123.093 0,-251.289 0,-374.375 h -27.14 c 0,127.785 0,644.25 0,772.084 z m -58.16,-772.15 h -88.19 v 772.36 h 88.19 V 349.59" /><path
         id="path32"
         style="fill:#000000;fill-opacity:1;fill-rule:nonzero;stroke:none"
         d="m 682.227,2880.96 c -10.586,35.94 -34.786,69.12 -64.903,91.42 -34.844,26.48 -81.386,35.12 -123.75,25.37 -10.594,43.48 -18.125,87.8 -27.324,131.56 31.492,31.23 59.363,66.07 79.441,105.37 31.504,61.32 44.043,131.01 43.762,199.58 0.281,52.96 -6.133,106.76 -25.918,156.37 -8.359,20.07 -19.238,40.98 -38.476,52.96 -9.746,6.69 -22.852,6.98 -33.438,2.23 -14.773,-6.41 -26.211,-17.84 -35.957,-30.38 -19.238,-25.36 -32.059,-54.64 -41.816,-84.74 -14.778,-46.27 -21.465,-95.6 -15.606,-143.82 5.293,-50.75 14.766,-101.2 23.137,-151.36 -31.223,-32.34 -63,-64.39 -92.824,-98.13 -44.883,-51 -86.414,-107.87 -103.692,-174.76 -16.164,-63.55 -6.699,-131.85 18.399,-191.78 22.304,-53.24 62.148,-99.51 114.004,-125.44 55.742,-27.59 121.535,-29.82 181.457,-16.16 9.761,-56.87 20.632,-113.72 25.093,-171.14 1.664,-23.98 -0.562,-48.79 -13.386,-69.69 -21.465,-38.47 -70.242,-58.54 -112.891,-47.95 -16.16,3.91 -33.73,15.06 -35.957,32.9 34.844,3.61 63.828,36.51 61.328,71.63 -1.394,36.52 -35.41,67.18 -71.64,65.23 -30.665,-0.56 -58.809,-22.87 -66.895,-52.12 -6.687,-23.71 -9.48,-50.18 1.113,-73.04 10.867,-23.98 32.325,-40.97 54.91,-53.52 35.957,-19.24 78.606,-26.75 118.743,-18.95 33.172,6.69 63.554,28.15 79.172,58.82 16.992,33.72 19.5,73.02 15.046,109.82 -6.418,52.68 -17.004,104.52 -26.484,156.65 43.762,17 82.234,49.61 102.297,92.54 22.305,46.55 28.672,101.46 13.055,150.53 z m -247.754,478.31 c 3.347,46.28 12.824,93.66 37.922,133.24 10.3,15.33 23.406,30.95 41.804,36.81 9.754,3.34 21.453,0.54 27.871,-7.82 13.106,-15.61 13.946,-37.35 13.946,-56.58 0,-33.17 -10.606,-65.23 -26.485,-93.94 -22.859,-41.81 -54.355,-78.04 -86.699,-112.6 -4.734,33.44 -11.414,66.89 -8.359,100.89 z m -44.871,-693.51 c -38.196,15.06 -71.086,43.49 -90.879,79.45 -25.364,45.71 -28.418,100.9 -19.512,151.64 9.48,54.35 43.769,100.06 82.793,137.13 27.039,25.93 55.469,50.18 83.34,74.98 7.808,-39.58 15.332,-79.16 23.418,-118.73 -48.496,-19.25 -89.485,-59.38 -103.977,-109.83 -10.586,-33.17 -6.406,-69.97 10.313,-100.35 19.797,-34.84 54.082,-58.53 89.757,-75.26 1.668,3.06 3.629,5.85 5.016,8.91 -31.492,24.82 -56.578,62.73 -55.183,104.54 0.554,40.98 30.378,79.16 69.406,91.15 17.554,-83.34 33.172,-167.25 49.058,-251.15 -46.836,-14.77 -98.679,-11.72 -143.55,7.52 z M 624.297,2765 c -4.461,-39.31 -28.438,-76.37 -63.828,-94.77 -16.446,81.11 -33.172,162.22 -49.903,243.34 26.77,0.56 53.809,-9.21 73.039,-27.88 32.047,-30.66 46.266,-77.21 40.692,-120.69" /><path
         id="path34"
         style="fill:#000000;fill-opacity:1;fill-rule:nonzero;stroke:none"
         d="m 1248.54,2848.68 c -3.42,14.83 -9.36,28.42 -19.11,40.2 -8.8,10.66 -19.84,19.37 -31.79,26.25 -28.57,16.42 -62.15,23.32 -94.72,25.31 -17.49,1.08 -34.85,-0.8 -52.06,-3.85 -15.52,-2.73 -30.99,-7.44 -45.39,-13.81 -27.904,-12.34 -52.841,-32.67 -62.267,-62.61 -5.051,-16.06 -4.98,-33.89 -1.133,-50.2 3.543,-15.02 10.723,-28.83 21.016,-40.31 21.887,-24.43 54.374,-37.05 85.854,-43.36 17.03,-3.42 34.57,-5.12 51.93,-4.77 17.28,0.37 34.15,2.97 50.97,6.88 28.3,6.56 57.26,19.53 76.85,41.6 8.6,9.69 14.51,20.76 18.3,33.09 4.47,14.57 4.16,30.72 1.55,45.58 m -93.43,-66.72 c -1.91,-14.53 -7.2,-28.12 -20.21,-36.01 -6.51,-3.95 -14.27,-5.92 -21.76,-7.09 -7.91,-1.23 -15.78,-0.39 -23.25,2.56 -13.74,5.43 -24.64,16.79 -32.59,28.96 -8.62,13.21 -14.61,28.26 -18.32,43.54 -4.09,16.91 -5.8,34.22 -5.42,51.6 0.35,15 1.88,32.03 12.48,43.69 5.13,5.65 12.12,9.14 19.31,11.43 7.65,2.42 15.97,4.2 24,2.84 14.35,-2.37 26.24,-11.07 35.51,-22 13.08,-15.43 21.1,-34.5 25.94,-53.99 5.31,-21.35 6.78,-43.65 4.31,-65.53" /><path
         id="path36"
         style="fill:#000000;fill-opacity:1;fill-rule:nonzero;stroke:none"
         d="m 1709.67,3141.68 h 22.91 v -597.81 c 0,0 0,-66.46 0,-99.69 0,-31.11 -7.79,-56.72 -28.4,-80.53 -35.35,-40.87 -91.25,-67.8 -145.24,-69.31 -25.39,-0.71 -53.96,0.46 -74.43,17.42 -20.55,17.02 -25.1,43.4 -24.65,68.79 0.95,53.27 43.97,93.24 88.65,115.64 49.29,24.71 111.67,35.07 161.16,5.8 0.1,213.22 0,639.69 0,639.69" /><path
         id="path38"
         style="fill:#000000;fill-opacity:1;fill-rule:nonzero;stroke:none"
         d="m 2414.61,2779.84 c 0,235.24 0,705.7 0,705.7 h -22.9 c 0,0 0.05,-529.32 0,-639.93 -52.48,31.03 -119.55,17.7 -170.35,-10.66 -23.78,-13.28 -45.81,-31.13 -61.09,-53.9 -16.71,-24.91 -20.81,-52.8 -16.97,-82.21 6.02,-26.4 19.16,-47.42 46.31,-55.78 29.37,-9.04 64.08,-6.62 93.44,1.11 52.37,15.02 110.8,50.9 127.76,105.94 2.91,9.6 4.09,19.7 3.8,29.73 m -32.16,14.51 c -9.86,-20.83 -27.03,-37.96 -44.29,-52.82 -19.2,-16.51 -40.41,-31.34 -62.62,-43.51 -20.91,-11.47 -43.51,-21.22 -67.08,-25.42 -10.08,-1.81 -21.62,-2.18 -30.85,3.06 -10.27,5.84 -8.37,20.39 -5.18,29.89 7.1,21.17 25.57,38.55 42.18,52.6 19.52,16.52 41.13,30.6 63.28,43.31 20.22,12.38 44.3,23.45 67.76,27.43 10.53,1.8 23.88,2.96 33.21,-3.41 11,-7.52 7.9,-20.58 3.59,-31.13" /><path
         id="path40"
         style="fill:#000000;fill-opacity:1;fill-rule:nonzero;stroke:none"
         d="m 2137.89,3597.83 -30,-13.01 v 88.41 l 30.03,13.03 -0.03,71.27 -30,-13.01 v 86.67 h -23.74 v -96.95 l -34.8,-15.1 v 78.02 h -23.74 v -88.31 l -30.04,-13.02 0.03,-71.27 30.01,13.01 v -88.42 l -30.04,-13.02 0.03,-71.27 30.01,13.01 v -86.68 h 23.74 v 96.96 l 34.8,15.1 v -78.02 h 23.74 v 88.31 l 30.03,13.01 z m -88.54,-38.39 v 88.42 l 34.8,15.09 v -88.42 l -34.8,-15.09" /><path
         id="path42"
         style="fill:#000000;fill-opacity:1;fill-rule:nonzero;stroke:none"
         d="m 2973.89,3119.09 h 22.91 v -597.81 c 0,0 0,-66.46 0,-99.69 0,-31.1 -7.8,-56.71 -28.4,-80.53 -35.35,-40.86 -91.25,-67.8 -145.25,-69.31 -25.38,-0.71 -53.95,0.47 -74.42,17.42 -20.55,17.02 -25.1,43.4 -24.65,68.79 0.95,53.27 43.97,93.24 88.65,115.65 49.29,24.7 111.66,35.06 161.16,5.79 0.09,213.23 0,639.69 0,639.69 m 93.96,-785.38 c -17.15,0 -31.05,-13.91 -31.05,-31.05 0,-17.16 13.9,-31.07 31.05,-31.07 17.17,0 31.08,13.91 31.08,31.07 0,17.14 -13.91,31.05 -31.08,31.05" /><path
         id="path44"
         style="fill:#000000;fill-opacity:1;fill-rule:nonzero;stroke:none"
         d="m 3680.96,2779.84 c 0,235.24 0,705.7 0,705.7 h -22.9 c 0,0 0.05,-529.32 0,-639.93 -52.49,31.03 -119.55,17.7 -170.35,-10.66 -23.78,-13.28 -45.82,-31.13 -61.09,-53.9 -16.71,-24.91 -20.81,-52.8 -16.97,-82.21 6.01,-26.4 19.16,-47.42 46.31,-55.78 29.37,-9.04 64.08,-6.62 93.43,1.11 52.38,15.02 110.81,50.9 127.77,105.94 2.91,9.6 4.09,19.7 3.8,29.73 m -32.16,14.51 c -9.86,-20.83 -27.03,-37.96 -44.29,-52.82 -19.2,-16.51 -40.41,-31.34 -62.62,-43.51 -20.91,-11.47 -43.51,-21.22 -67.09,-25.42 -10.07,-1.81 -21.62,-2.18 -30.84,3.06 -10.28,5.84 -8.37,20.39 -5.18,29.89 7.1,21.17 25.57,38.55 42.18,52.6 19.52,16.52 41.13,30.6 63.28,43.31 20.21,12.38 44.3,23.45 67.76,27.43 10.53,1.8 23.88,2.96 33.21,-3.41 10.99,-7.52 7.9,-20.58 3.59,-31.13 m 134.33,-126.04 c 0,-17.15 -13.91,-31.05 -31.08,-31.05 -17.15,0 -31.05,13.9 -31.05,31.05 0,17.16 13.9,31.07 31.05,31.07 17.17,0 31.08,-13.91 31.08,-31.07" /><path
         id="path46"
         style="fill:#000000;fill-opacity:1;fill-rule:nonzero;stroke:none"
         d="m 3230.83,3786.72 23.97,1.5 136.38,-160.35 c 0,0 -72.15,-95.96 -80.93,-112.4 -14.14,-26.51 -9.98,-42.6 1.5,-59.94 8.69,-13.15 66.94,-96.49 66.94,-96.49 l -10.39,-9.78 c 0,0 -65.06,6.95 -82.02,-3.13 -17.52,-10.43 -27.67,-36.18 -17.48,-56.95 9.79,-19.97 58.06,-68.97 58.06,-68.97 l -12.11,0.02 c 0,0 -103.17,65.88 -116.89,113.91 -9.68,33.89 13.72,57.3 47.95,59.94 32.55,2.52 80.93,-8.98 80.93,-8.98 l -115.39,155.84 c 0,0 65.58,86.48 75.3,106.01 10.14,20.39 6.41,40.41 -2.26,61.75 -6.42,15.82 -31.08,61.53 -53.56,78.02" /><path
         id="path48"
         style="fill:#000000;fill-opacity:1;fill-rule:nonzero;stroke:none"
         d="m 1301.09,3448.4 c -22.93,15.15 -63.99,12.61 -89.23,-24.32 v 240.4 h -15.29 v -440 c 0,0 106.74,102.06 122.21,125.79 26.49,40.6 12.06,78.49 -17.69,98.13 z m -30.04,-121.06 c -8.69,-18.87 -45.82,-60.23 -59.19,-74.01 v 112.83 c 24.18,34.9 50.52,24.31 61.58,11.43 10.15,-11.83 8.51,-26.53 -2.39,-50.25" /></g></g></svg>